<svg xmlns="http://www.w3.org/2000/svg" xmlns:xlink="http://www.w3.org/1999/xlink" width="64" zoomAndPan="magnify" viewBox="0 0 48 48" height="64" preserveAspectRatio="xMidYMid meet" version="1.0"><defs><clipPath id="4c21c33c6b"><path d="M 5.191406 7.300781 L 35 7.300781 L 35 39.628906 L 5.191406 39.628906 Z M 5.191406 7.300781 " clip-rule="nonzero"/></clipPath><clipPath id="c29589d3a6"><path d="M 38 13 L 42.660156 13 L 42.660156 39.628906 L 38 39.628906 Z M 38 13 " clip-rule="nonzero"/></clipPath><clipPath id="5f735f7bff"><path d="M 38 7.300781 L 42.660156 7.300781 L 42.660156 12 L 38 12 Z M 38 7.300781 " clip-rule="nonzero"/></clipPath></defs><path fill="#ff0000" d="M 32.175781 37.621094 L 19.761719 9.78125 L 7.347656 37.621094 L 7.175781 37.542969 L 19.761719 9.3125 L 32.351562 37.542969 Z M 32.175781 37.621094 " fill-opacity="1" fill-rule="nonzero"/><g clip-path="url(#4c21c33c6b)"><path stroke-linecap="round" transform="matrix(0.0396334, 0, 0, 0.0396664, 5.033303, 2.641382)" fill="none" stroke-linejoin="round" d="M 684.83908 881.847644 L 371.616573 179.997933 L 58.394065 881.847644 L 54.057441 879.878092 L 371.616573 168.180623 L 689.274264 879.878092 Z M 684.83908 881.847644 " stroke="#000000" stroke-width="100" stroke-opacity="1" stroke-miterlimit="4"/></g><g clip-path="url(#c29589d3a6)"><path stroke-linecap="round" transform="matrix(0.0396334, 0, 0, 0.0396664, 5.033303, 2.641382)" fill="none" stroke-linejoin="round" d="M 899.403397 318.752843 L 899.403397 881.847644 " stroke="#000000" stroke-width="100" stroke-opacity="1" stroke-miterlimit="4"/></g><path fill="#ba9bc9" d="M 21.742188 28.734375 C 21.742188 29 21.691406 29.25 21.59375 29.496094 C 21.492188 29.738281 21.347656 29.953125 21.164062 30.136719 C 20.976562 30.324219 20.761719 30.46875 20.519531 30.566406 C 20.277344 30.667969 20.023438 30.71875 19.761719 30.71875 C 19.5 30.71875 19.246094 30.667969 19.003906 30.566406 C 18.761719 30.46875 18.546875 30.324219 18.359375 30.136719 C 18.175781 29.953125 18.03125 29.738281 17.929688 29.496094 C 17.832031 29.25 17.78125 29 17.78125 28.734375 C 17.78125 28.472656 17.832031 28.21875 17.929688 27.976562 C 18.03125 27.734375 18.175781 27.519531 18.359375 27.332031 C 18.546875 27.148438 18.761719 27.003906 19.003906 26.902344 C 19.246094 26.800781 19.5 26.753906 19.761719 26.753906 C 20.023438 26.753906 20.277344 26.800781 20.519531 26.902344 C 20.761719 27.003906 20.976562 27.148438 21.164062 27.332031 C 21.347656 27.519531 21.492188 27.734375 21.59375 27.976562 C 21.691406 28.21875 21.742188 28.472656 21.742188 28.734375 Z M 21.742188 28.734375 " fill-opacity="1" fill-rule="nonzero"/><g clip-path="url(#5f735f7bff)"><path fill="#ba9bc9" d="M 42.527344 9.3125 C 42.527344 9.574219 42.476562 9.828125 42.375 10.070312 C 42.273438 10.3125 42.132812 10.527344 41.945312 10.714844 C 41.761719 10.898438 41.546875 11.042969 41.304688 11.144531 C 41.058594 11.242188 40.808594 11.292969 40.542969 11.292969 C 40.28125 11.292969 40.027344 11.242188 39.785156 11.144531 C 39.542969 11.042969 39.328125 10.898438 39.144531 10.714844 C 38.957031 10.527344 38.8125 10.3125 38.714844 10.070312 C 38.613281 9.828125 38.5625 9.574219 38.5625 9.3125 C 38.5625 9.046875 38.613281 8.792969 38.714844 8.550781 C 38.8125 8.308594 38.957031 8.09375 39.144531 7.910156 C 39.328125 7.722656 39.542969 7.578125 39.785156 7.480469 C 40.027344 7.378906 40.28125 7.328125 40.542969 7.328125 C 40.808594 7.328125 41.058594 7.378906 41.304688 7.480469 C 41.546875 7.578125 41.761719 7.722656 41.945312 7.910156 C 42.132812 8.09375 42.273438 8.308594 42.375 8.550781 C 42.476562 8.792969 42.527344 9.046875 42.527344 9.3125 Z M 42.527344 9.3125 " fill-opacity="1" fill-rule="nonzero"/></g></svg>