<svg xmlns="http://www.w3.org/2000/svg" xmlns:xlink="http://www.w3.org/1999/xlink" width="64" zoomAndPan="magnify" viewBox="0 0 48 48" height="64" preserveAspectRatio="xMidYMid meet" version="1.0"><defs><clipPath id="6240da8441"><path d="M 5.191406 4.703125 L 42 4.703125 L 42 42.171875 L 5.191406 42.171875 Z M 5.191406 4.703125 " clip-rule="nonzero"/></clipPath></defs><g clip-path="url(#6240da8441)"><path fill="#0000bd" d="M 37.71875 35.761719 C 37.765625 37.136719 37.175781 38.40625 36.09375 39.246094 C 33.582031 41.203125 30.601562 42.148438 27.644531 42.148438 C 23.515625 42.148438 19.429688 40.304688 16.710938 36.785156 L 8.441406 26.082031 C 6.179688 23.15625 5.191406 19.519531 5.652344 15.839844 C 6.117188 12.164062 7.980469 8.890625 10.894531 6.617188 C 11.976562 5.777344 13.347656 5.519531 14.65625 5.910156 C 15.96875 6.296875 16.976562 7.261719 17.429688 8.554688 L 18.921875 12.835938 C 19.519531 14.550781 18.960938 16.453125 17.53125 17.566406 L 15.109375 19.449219 C 14.914062 19.601562 14.863281 19.800781 14.851562 19.90625 C 14.835938 20.011719 14.835938 20.214844 14.988281 20.410156 L 22.105469 29.625 L 19.96875 31.289062 L 12.847656 22.078125 C 12.292969 21.359375 12.050781 20.464844 12.164062 19.5625 C 12.277344 18.660156 12.734375 17.859375 13.453125 17.300781 L 15.871094 15.417969 C 16.382812 15.019531 16.578125 14.34375 16.367188 13.734375 L 14.875 9.453125 C 14.714844 8.996094 14.355469 8.652344 13.890625 8.515625 C 13.425781 8.375 12.9375 8.46875 12.554688 8.765625 C 7.710938 12.535156 6.824219 19.558594 10.582031 24.417969 L 18.851562 35.121094 C 22.601562 39.980469 29.59375 40.867188 34.433594 37.101562 C 34.816406 36.800781 35.027344 36.347656 35.011719 35.859375 C 34.996094 35.371094 34.75 34.9375 34.347656 34.664062 L 30.601562 32.15625 C 30.066406 31.800781 29.363281 31.824219 28.855469 32.222656 L 26.433594 34.105469 C 24.957031 35.253906 22.820312 34.984375 21.675781 33.5 L 23.816406 31.835938 C 23.964844 32.03125 24.164062 32.082031 24.269531 32.097656 C 24.375 32.113281 24.578125 32.109375 24.773438 31.957031 L 27.195312 30.074219 C 28.625 28.960938 30.597656 28.890625 32.101562 29.898438 L 35.847656 32.40625 C 36.988281 33.167969 37.667969 34.390625 37.71875 35.761719 Z M 38.148438 11.523438 C 34.886719 7.3125 29.773438 4.773438 24.46875 4.726562 L 24.445312 7.445312 C 28.929688 7.484375 33.253906 9.628906 36.007812 13.1875 C 38.875 16.90625 39.820312 21.824219 38.546875 26.347656 L 41.148438 27.085938 C 42.660156 21.738281 41.539062 15.921875 38.148438 11.523438 Z M 36.511719 25.769531 C 37.609375 21.890625 36.792969 17.675781 34.332031 14.492188 C 31.953125 11.40625 28.355469 9.613281 24.46875 9.570312 L 24.441406 12.289062 C 27.496094 12.320312 30.320312 13.730469 32.191406 16.160156 C 34.15625 18.699219 34.785156 21.933594 33.910156 25.027344 Z M 36.511719 25.769531 " fill-opacity="1" fill-rule="nonzero"/></g></svg>