<svg xmlns="http://www.w3.org/2000/svg" xmlns:xlink="http://www.w3.org/1999/xlink" width="64" zoomAndPan="magnify" viewBox="0 0 48 48" height="64" preserveAspectRatio="xMidYMid meet" version="1.0"><defs><clipPath id="94d5de6bce"><path d="M 6 7 L 42 7 L 42 42.171875 L 6 42.171875 Z M 6 7 " clip-rule="nonzero"/></clipPath><clipPath id="820550455e"><path d="M 5.191406 8 L 8 8 L 8 11 L 5.191406 11 Z M 5.191406 8 " clip-rule="nonzero"/></clipPath><clipPath id="4ff807b43c"><path d="M 37 4.703125 L 40 4.703125 L 40 7 L 37 7 Z M 37 4.703125 " clip-rule="nonzero"/></clipPath><clipPath id="67977323f7"><path d="M 40 38 L 42.660156 38 L 42.660156 41 L 40 41 Z M 40 38 " clip-rule="nonzero"/></clipPath></defs><g clip-path="url(#94d5de6bce)"><path fill="#e7efff" d="M 41.273438 24.824219 C 41.273438 25.394531 41.246094 25.960938 41.191406 26.523438 C 41.132812 27.089844 41.050781 27.652344 40.941406 28.207031 C 40.828125 28.765625 40.691406 29.316406 40.527344 29.859375 C 40.363281 30.402344 40.171875 30.9375 39.953125 31.460938 C 39.734375 31.988281 39.492188 32.5 39.226562 33 C 38.957031 33.503906 38.664062 33.988281 38.351562 34.460938 C 38.035156 34.933594 37.695312 35.390625 37.335938 35.828125 C 36.976562 36.269531 36.59375 36.6875 36.191406 37.089844 C 35.789062 37.492188 35.371094 37.875 34.929688 38.234375 C 34.492188 38.59375 34.035156 38.933594 33.5625 39.246094 C 33.089844 39.5625 32.605469 39.855469 32.105469 40.125 C 31.601562 40.390625 31.089844 40.632812 30.566406 40.851562 C 30.039062 41.070312 29.503906 41.257812 28.960938 41.425781 C 28.417969 41.589844 27.867188 41.726562 27.3125 41.839844 C 26.753906 41.949219 26.191406 42.03125 25.625 42.089844 C 25.0625 42.144531 24.496094 42.171875 23.925781 42.171875 C 23.359375 42.171875 22.792969 42.144531 22.226562 42.089844 C 21.660156 42.03125 21.097656 41.949219 20.542969 41.839844 C 19.984375 41.726562 19.433594 41.589844 18.890625 41.425781 C 18.347656 41.257812 17.8125 41.070312 17.289062 40.851562 C 16.761719 40.632812 16.25 40.390625 15.75 40.125 C 15.25 39.855469 14.761719 39.5625 14.289062 39.246094 C 13.816406 38.933594 13.359375 38.59375 12.921875 38.234375 C 12.484375 37.875 12.0625 37.492188 11.660156 37.089844 C 11.257812 36.6875 10.878906 36.269531 10.515625 35.828125 C 10.15625 35.390625 9.820312 34.933594 9.503906 34.460938 C 9.1875 33.988281 8.894531 33.503906 8.628906 33 C 8.359375 32.5 8.117188 31.988281 7.898438 31.460938 C 7.683594 30.9375 7.492188 30.402344 7.328125 29.859375 C 7.160156 29.316406 7.023438 28.765625 6.914062 28.207031 C 6.800781 27.652344 6.71875 27.089844 6.664062 26.523438 C 6.609375 25.960938 6.578125 25.394531 6.578125 24.824219 C 6.578125 24.257812 6.609375 23.691406 6.664062 23.125 C 6.71875 22.558594 6.800781 21.996094 6.914062 21.441406 C 7.023438 20.882812 7.160156 20.332031 7.328125 19.789062 C 7.492188 19.246094 7.683594 18.710938 7.898438 18.1875 C 8.117188 17.660156 8.359375 17.148438 8.628906 16.648438 C 8.894531 16.144531 9.1875 15.660156 9.503906 15.1875 C 9.820312 14.714844 10.15625 14.257812 10.515625 13.820312 C 10.878906 13.378906 11.257812 12.960938 11.660156 12.558594 C 12.0625 12.15625 12.484375 11.777344 12.921875 11.414062 C 13.359375 11.054688 13.816406 10.714844 14.289062 10.402344 C 14.761719 10.085938 15.25 9.792969 15.75 9.527344 C 16.25 9.257812 16.761719 9.015625 17.289062 8.796875 C 17.8125 8.582031 18.347656 8.390625 18.890625 8.222656 C 19.433594 8.058594 19.984375 7.921875 20.542969 7.8125 C 21.097656 7.699219 21.660156 7.617188 22.226562 7.5625 C 22.792969 7.503906 23.359375 7.476562 23.925781 7.476562 C 24.496094 7.476562 25.0625 7.503906 25.625 7.5625 C 26.191406 7.617188 26.753906 7.699219 27.3125 7.8125 C 27.867188 7.921875 28.417969 8.058594 28.960938 8.222656 C 29.503906 8.390625 30.039062 8.582031 30.566406 8.796875 C 31.089844 9.015625 31.601562 9.257812 32.105469 9.527344 C 32.605469 9.792969 33.089844 10.085938 33.5625 10.402344 C 34.035156 10.714844 34.492188 11.054688 34.929688 11.414062 C 35.371094 11.777344 35.789062 12.15625 36.191406 12.558594 C 36.59375 12.960938 36.976562 13.378906 37.335938 13.820312 C 37.695312 14.257812 38.035156 14.714844 38.351562 15.1875 C 38.664062 15.660156 38.957031 16.144531 39.226562 16.648438 C 39.492188 17.148438 39.734375 17.660156 39.953125 18.1875 C 40.171875 18.710938 40.363281 19.246094 40.527344 19.789062 C 40.691406 20.332031 40.828125 20.882812 40.941406 21.441406 C 41.050781 21.996094 41.132812 22.558594 41.191406 23.125 C 41.246094 23.691406 41.273438 24.257812 41.273438 24.824219 Z M 41.273438 24.824219 " fill-opacity="1" fill-rule="nonzero"/></g><g clip-path="url(#820550455e)"><path fill="#ffa100" d="M 7.273438 9.558594 C 7.273438 9.695312 7.246094 9.828125 7.195312 9.957031 C 7.140625 10.085938 7.066406 10.199219 6.96875 10.296875 C 6.871094 10.394531 6.757812 10.46875 6.632812 10.519531 C 6.503906 10.574219 6.371094 10.601562 6.234375 10.601562 C 6.09375 10.601562 5.960938 10.574219 5.835938 10.519531 C 5.707031 10.46875 5.59375 10.394531 5.496094 10.296875 C 5.398438 10.199219 5.324219 10.085938 5.269531 9.957031 C 5.21875 9.828125 5.191406 9.695312 5.191406 9.558594 C 5.191406 9.421875 5.21875 9.289062 5.269531 9.160156 C 5.324219 9.035156 5.398438 8.921875 5.496094 8.824219 C 5.59375 8.726562 5.707031 8.652344 5.835938 8.597656 C 5.960938 8.542969 6.09375 8.519531 6.234375 8.519531 C 6.371094 8.519531 6.503906 8.542969 6.632812 8.597656 C 6.757812 8.652344 6.871094 8.726562 6.96875 8.824219 C 7.066406 8.921875 7.140625 9.035156 7.195312 9.160156 C 7.246094 9.289062 7.273438 9.421875 7.273438 9.558594 Z M 7.273438 9.558594 " fill-opacity="1" fill-rule="nonzero"/></g><g clip-path="url(#4ff807b43c)"><path fill="#00c99f" d="M 39.191406 5.742188 C 39.191406 5.882812 39.164062 6.011719 39.113281 6.140625 C 39.058594 6.269531 38.984375 6.382812 38.886719 6.480469 C 38.789062 6.578125 38.675781 6.652344 38.550781 6.703125 C 38.421875 6.757812 38.289062 6.785156 38.152344 6.785156 C 38.011719 6.785156 37.878906 6.757812 37.753906 6.703125 C 37.625 6.652344 37.511719 6.578125 37.414062 6.480469 C 37.316406 6.382812 37.242188 6.269531 37.1875 6.140625 C 37.136719 6.011719 37.109375 5.882812 37.109375 5.742188 C 37.109375 5.605469 37.136719 5.472656 37.1875 5.34375 C 37.242188 5.21875 37.316406 5.105469 37.414062 5.007812 C 37.511719 4.910156 37.625 4.835938 37.753906 4.78125 C 37.878906 4.726562 38.011719 4.703125 38.152344 4.703125 C 38.289062 4.703125 38.421875 4.726562 38.550781 4.78125 C 38.675781 4.835938 38.789062 4.910156 38.886719 5.007812 C 38.984375 5.105469 39.058594 5.21875 39.113281 5.34375 C 39.164062 5.472656 39.191406 5.605469 39.191406 5.742188 Z M 39.191406 5.742188 " fill-opacity="1" fill-rule="nonzero"/></g><g clip-path="url(#67977323f7)"><path fill="#ff4d69" d="M 42.660156 39.742188 C 42.660156 39.882812 42.636719 40.011719 42.582031 40.140625 C 42.527344 40.269531 42.453125 40.382812 42.355469 40.480469 C 42.257812 40.578125 42.144531 40.652344 42.019531 40.703125 C 41.890625 40.757812 41.757812 40.785156 41.621094 40.785156 C 41.480469 40.785156 41.351562 40.757812 41.222656 40.703125 C 41.09375 40.652344 40.980469 40.578125 40.882812 40.480469 C 40.785156 40.382812 40.710938 40.269531 40.660156 40.140625 C 40.605469 40.011719 40.578125 39.882812 40.578125 39.742188 C 40.578125 39.605469 40.605469 39.472656 40.660156 39.34375 C 40.710938 39.21875 40.785156 39.105469 40.882812 39.007812 C 40.980469 38.910156 41.09375 38.835938 41.222656 38.78125 C 41.351562 38.726562 41.480469 38.703125 41.621094 38.703125 C 41.757812 38.703125 41.890625 38.726562 42.019531 38.78125 C 42.144531 38.835938 42.257812 38.910156 42.355469 39.007812 C 42.453125 39.105469 42.527344 39.21875 42.582031 39.34375 C 42.636719 39.472656 42.660156 39.605469 42.660156 39.742188 Z M 42.660156 39.742188 " fill-opacity="1" fill-rule="nonzero"/></g><path fill="#00c99f" d="M 9.703125 39.050781 C 9.703125 39.1875 9.675781 39.320312 9.621094 39.449219 C 9.570312 39.574219 9.496094 39.6875 9.398438 39.785156 C 9.300781 39.882812 9.1875 39.957031 9.058594 40.011719 C 8.933594 40.0625 8.800781 40.089844 8.660156 40.089844 C 8.523438 40.089844 8.390625 40.0625 8.261719 40.011719 C 8.136719 39.957031 8.023438 39.882812 7.925781 39.785156 C 7.828125 39.6875 7.753906 39.574219 7.699219 39.449219 C 7.648438 39.320312 7.621094 39.1875 7.621094 39.050781 C 7.621094 38.910156 7.648438 38.777344 7.699219 38.652344 C 7.753906 38.523438 7.828125 38.410156 7.925781 38.3125 C 8.023438 38.214844 8.136719 38.140625 8.261719 38.085938 C 8.390625 38.035156 8.523438 38.007812 8.660156 38.007812 C 8.800781 38.007812 8.933594 38.035156 9.058594 38.085938 C 9.1875 38.140625 9.300781 38.214844 9.398438 38.3125 C 9.496094 38.410156 9.570312 38.523438 9.621094 38.652344 C 9.675781 38.777344 9.703125 38.910156 9.703125 39.050781 Z M 9.703125 39.050781 " fill-opacity="1" fill-rule="nonzero"/><path fill="#a5bced" d="M 29.476562 11.988281 L 29.476562 34.191406 C 29.476562 34.511719 29.445312 34.828125 29.382812 35.140625 C 29.320312 35.453125 29.230469 35.757812 29.109375 36.050781 C 28.984375 36.34375 28.835938 36.625 28.660156 36.890625 C 28.480469 37.15625 28.28125 37.402344 28.054688 37.625 C 27.828125 37.851562 27.585938 38.054688 27.320312 38.230469 C 27.054688 38.40625 26.773438 38.558594 26.480469 38.679688 C 26.183594 38.800781 25.878906 38.894531 25.566406 38.957031 C 25.253906 39.019531 24.9375 39.050781 24.621094 39.050781 C 14.171875 39.050781 14.558594 39.097656 13.832031 38.925781 C 12.453125 37.945312 11.246094 36.78125 10.210938 35.441406 C 9.984375 34.585938 10.050781 36.214844 10.050781 11.988281 C 10.050781 11.667969 10.082031 11.351562 10.140625 11.039062 C 10.203125 10.726562 10.296875 10.421875 10.417969 10.128906 C 10.539062 9.835938 10.691406 9.554688 10.867188 9.289062 C 11.042969 9.023438 11.246094 8.777344 11.472656 8.554688 C 11.695312 8.328125 11.941406 8.125 12.207031 7.949219 C 12.472656 7.773438 12.753906 7.621094 13.046875 7.5 C 13.34375 7.378906 13.644531 7.285156 13.957031 7.222656 C 14.269531 7.160156 14.585938 7.128906 14.90625 7.128906 L 24.621094 7.128906 C 24.9375 7.128906 25.253906 7.160156 25.566406 7.222656 C 25.878906 7.285156 26.183594 7.378906 26.480469 7.5 C 26.773438 7.621094 27.054688 7.773438 27.320312 7.949219 C 27.585938 8.125 27.828125 8.328125 28.054688 8.554688 C 28.28125 8.777344 28.480469 9.023438 28.660156 9.289062 C 28.835938 9.554688 28.984375 9.835938 29.109375 10.128906 C 29.230469 10.421875 29.320312 10.726562 29.382812 11.039062 C 29.445312 11.351562 29.476562 11.667969 29.476562 11.988281 Z M 29.476562 11.988281 " fill-opacity="1" fill-rule="nonzero"/><path fill="#ffffff" d="M 14.558594 9.210938 L 24.96875 9.210938 C 25.289062 9.210938 25.597656 9.273438 25.898438 9.398438 C 26.195312 9.519531 26.457031 9.695312 26.683594 9.921875 C 26.914062 10.152344 27.085938 10.414062 27.210938 10.710938 C 27.335938 11.007812 27.394531 11.320312 27.394531 11.640625 L 27.394531 34.539062 C 27.394531 34.859375 27.335938 35.171875 27.210938 35.46875 C 27.085938 35.765625 26.914062 36.027344 26.683594 36.257812 C 26.457031 36.484375 26.195312 36.660156 25.898438 36.78125 C 25.597656 36.90625 25.289062 36.96875 24.96875 36.96875 L 14.558594 36.96875 C 14.238281 36.96875 13.925781 36.90625 13.628906 36.78125 C 13.332031 36.660156 13.070312 36.484375 12.84375 36.257812 C 12.613281 36.027344 12.4375 35.765625 12.316406 35.46875 C 12.191406 35.171875 12.128906 34.859375 12.128906 34.539062 L 12.128906 11.640625 C 12.128906 11.320312 12.191406 11.007812 12.316406 10.710938 C 12.4375 10.414062 12.613281 10.152344 12.84375 9.921875 C 13.070312 9.695312 13.332031 9.519531 13.628906 9.398438 C 13.925781 9.273438 14.238281 9.210938 14.558594 9.210938 Z M 14.558594 9.210938 " fill-opacity="1" fill-rule="nonzero"/><path fill="#a5bced" d="M 15.601562 8.867188 L 23.925781 8.867188 L 23.925781 9.90625 C 23.925781 10.089844 23.890625 10.265625 23.820312 10.4375 C 23.75 10.605469 23.648438 10.757812 23.519531 10.886719 C 23.390625 11.015625 23.238281 11.117188 23.070312 11.1875 C 22.898438 11.257812 22.722656 11.292969 22.539062 11.292969 L 16.988281 11.292969 C 16.804688 11.292969 16.625 11.257812 16.457031 11.1875 C 16.285156 11.117188 16.136719 11.015625 16.007812 10.886719 C 15.875 10.757812 15.777344 10.605469 15.707031 10.4375 C 15.636719 10.265625 15.601562 10.089844 15.601562 9.90625 Z M 15.601562 8.867188 " fill-opacity="1" fill-rule="nonzero"/><path fill="#7f96d1" d="M 19.070312 10.253906 L 17.679688 10.253906 C 17.488281 10.253906 17.328125 10.183594 17.191406 10.050781 C 17.054688 9.914062 16.988281 9.75 16.988281 9.558594 C 16.988281 9.367188 17.054688 9.203125 17.191406 9.070312 C 17.328125 8.933594 17.488281 8.867188 17.679688 8.867188 L 19.070312 8.867188 C 19.261719 8.867188 19.425781 8.933594 19.558594 9.070312 C 19.695312 9.203125 19.761719 9.367188 19.761719 9.558594 C 19.761719 9.75 19.695312 9.914062 19.558594 10.050781 C 19.425781 10.183594 19.261719 10.253906 19.070312 10.253906 Z M 19.070312 10.253906 " fill-opacity="1" fill-rule="nonzero"/><path fill="#7f96d1" d="M 22.539062 9.558594 C 22.539062 9.75 22.472656 9.914062 22.335938 10.050781 C 22.199219 10.183594 22.035156 10.253906 21.84375 10.253906 C 21.652344 10.253906 21.488281 10.183594 21.355469 10.050781 C 21.21875 9.914062 21.152344 9.75 21.152344 9.558594 C 21.152344 9.367188 21.21875 9.203125 21.355469 9.070312 C 21.488281 8.933594 21.652344 8.867188 21.84375 8.867188 C 22.035156 8.867188 22.199219 8.933594 22.335938 9.070312 C 22.472656 9.203125 22.539062 9.367188 22.539062 9.558594 Z M 22.539062 9.558594 " fill-opacity="1" fill-rule="nonzero"/><path fill="#4e6aff" d="M 36.070312 16.152344 L 18.027344 16.152344 C 17.84375 16.152344 17.667969 16.1875 17.496094 16.257812 C 17.328125 16.328125 17.175781 16.425781 17.046875 16.558594 C 16.917969 16.6875 16.816406 16.835938 16.746094 17.007812 C 16.675781 17.175781 16.640625 17.355469 16.640625 17.539062 L 16.640625 29.335938 C 16.640625 29.519531 16.675781 29.695312 16.746094 29.867188 C 16.816406 30.035156 16.917969 30.1875 17.046875 30.316406 C 17.175781 30.445312 17.328125 30.546875 17.496094 30.617188 C 17.667969 30.6875 17.84375 30.722656 18.027344 30.722656 L 18.375 30.722656 L 18.375 32.457031 C 18.375 32.554688 18.410156 32.632812 18.476562 32.703125 C 18.542969 32.769531 18.625 32.804688 18.722656 32.804688 C 18.890625 32.804688 18.722656 32.894531 21.613281 30.722656 L 36.070312 30.722656 C 36.253906 30.722656 36.429688 30.6875 36.601562 30.617188 C 36.769531 30.546875 36.921875 30.445312 37.050781 30.316406 C 37.179688 30.1875 37.28125 30.035156 37.351562 29.867188 C 37.421875 29.695312 37.457031 29.519531 37.457031 29.335938 L 37.457031 17.539062 C 37.457031 17.355469 37.421875 17.175781 37.351562 17.007812 C 37.28125 16.835938 37.179688 16.6875 37.050781 16.558594 C 36.921875 16.425781 36.769531 16.328125 36.601562 16.257812 C 36.429688 16.1875 36.253906 16.152344 36.070312 16.152344 Z M 36.070312 16.152344 " fill-opacity="1" fill-rule="nonzero"/><path fill="#ffffff" d="M 20.804688 21.355469 L 22.191406 21.355469 C 22.382812 21.355469 22.546875 21.289062 22.683594 21.152344 C 22.816406 21.015625 22.886719 20.851562 22.886719 20.660156 C 22.886719 20.46875 22.816406 20.304688 22.683594 20.171875 C 22.546875 20.035156 22.382812 19.96875 22.191406 19.96875 L 20.804688 19.96875 C 20.527344 19.96875 20.261719 20.019531 20.007812 20.125 C 19.753906 20.230469 19.527344 20.382812 19.332031 20.578125 C 19.136719 20.773438 18.988281 20.996094 18.882812 21.253906 C 18.773438 21.507812 18.722656 21.773438 18.722656 22.050781 C 18.722656 22.324219 18.773438 22.589844 18.882812 22.84375 C 18.988281 23.101562 19.136719 23.324219 19.332031 23.519531 C 19.527344 23.714844 19.753906 23.867188 20.007812 23.972656 C 20.261719 24.078125 20.527344 24.128906 20.804688 24.128906 C 20.996094 24.128906 21.160156 24.199219 21.292969 24.332031 C 21.429688 24.46875 21.496094 24.632812 21.496094 24.824219 C 21.496094 25.015625 21.429688 25.179688 21.292969 25.316406 C 21.160156 25.449219 20.996094 25.519531 20.804688 25.519531 L 19.417969 25.519531 C 19.226562 25.519531 19.0625 25.585938 18.925781 25.722656 C 18.789062 25.855469 18.722656 26.019531 18.722656 26.210938 C 18.722656 26.402344 18.789062 26.566406 18.925781 26.703125 C 19.0625 26.839844 19.226562 26.90625 19.417969 26.90625 L 20.804688 26.90625 C 21.082031 26.90625 21.34375 26.851562 21.601562 26.746094 C 21.855469 26.640625 22.082031 26.492188 22.277344 26.296875 C 22.472656 26.101562 22.621094 25.875 22.726562 25.621094 C 22.832031 25.367188 22.886719 25.101562 22.886719 24.824219 C 22.886719 24.546875 22.832031 24.28125 22.726562 24.027344 C 22.621094 23.773438 22.472656 23.546875 22.277344 23.351562 C 22.082031 23.15625 21.855469 23.007812 21.601562 22.902344 C 21.34375 22.796875 21.082031 22.742188 20.804688 22.742188 C 20.613281 22.742188 20.449219 22.675781 20.3125 22.539062 C 20.179688 22.402344 20.109375 22.242188 20.109375 22.050781 C 20.109375 21.855469 20.179688 21.695312 20.3125 21.558594 C 20.449219 21.421875 20.613281 21.355469 20.804688 21.355469 Z M 20.804688 21.355469 " fill-opacity="1" fill-rule="nonzero"/><path fill="#ffffff" d="M 33.292969 22.742188 C 33.101562 22.742188 32.9375 22.675781 32.804688 22.539062 C 32.667969 22.402344 32.601562 22.242188 32.601562 22.050781 C 32.601562 21.855469 32.667969 21.695312 32.804688 21.558594 C 32.9375 21.421875 33.101562 21.355469 33.292969 21.355469 L 34.679688 21.355469 C 34.875 21.355469 35.035156 21.289062 35.171875 21.152344 C 35.308594 21.015625 35.375 20.851562 35.375 20.660156 C 35.375 20.46875 35.308594 20.304688 35.171875 20.171875 C 35.035156 20.035156 34.875 19.96875 34.679688 19.96875 L 33.292969 19.96875 C 33.019531 19.96875 32.753906 20.019531 32.496094 20.125 C 32.242188 20.230469 32.015625 20.382812 31.820312 20.578125 C 31.625 20.773438 31.476562 20.996094 31.371094 21.253906 C 31.265625 21.507812 31.210938 21.773438 31.210938 22.050781 C 31.210938 22.324219 31.265625 22.589844 31.371094 22.84375 C 31.476562 23.101562 31.625 23.324219 31.820312 23.519531 C 32.015625 23.714844 32.242188 23.867188 32.496094 23.972656 C 32.753906 24.078125 33.019531 24.128906 33.292969 24.128906 C 33.484375 24.128906 33.648438 24.199219 33.785156 24.332031 C 33.921875 24.46875 33.988281 24.632812 33.988281 24.824219 C 33.988281 25.015625 33.921875 25.179688 33.785156 25.316406 C 33.648438 25.449219 33.484375 25.519531 33.292969 25.519531 L 31.90625 25.519531 C 31.714844 25.519531 31.550781 25.585938 31.414062 25.722656 C 31.28125 25.855469 31.210938 26.019531 31.210938 26.210938 C 31.210938 26.402344 31.28125 26.566406 31.414062 26.703125 C 31.550781 26.839844 31.714844 26.90625 31.90625 26.90625 L 33.292969 26.90625 C 33.570312 26.90625 33.835938 26.851562 34.089844 26.746094 C 34.34375 26.640625 34.570312 26.492188 34.765625 26.296875 C 34.960938 26.101562 35.113281 25.875 35.21875 25.621094 C 35.324219 25.367188 35.375 25.101562 35.375 24.824219 C 35.375 24.546875 35.324219 24.28125 35.21875 24.027344 C 35.113281 23.773438 34.960938 23.546875 34.765625 23.351562 C 34.570312 23.15625 34.34375 23.007812 34.089844 22.902344 C 33.835938 22.796875 33.570312 22.742188 33.292969 22.742188 Z M 33.292969 22.742188 " fill-opacity="1" fill-rule="nonzero"/><path fill="#ffffff" d="M 28.574219 20.246094 L 27.050781 22.28125 L 25.523438 20.246094 C 25.433594 20.125 25.316406 20.042969 25.175781 20 C 25.03125 19.953125 24.890625 19.957031 24.746094 20.003906 C 24.605469 20.050781 24.492188 20.132812 24.40625 20.253906 C 24.316406 20.375 24.273438 20.511719 24.273438 20.660156 L 24.273438 26.210938 C 24.273438 26.402344 24.339844 26.566406 24.476562 26.703125 C 24.613281 26.839844 24.777344 26.90625 24.96875 26.90625 C 25.160156 26.90625 25.324219 26.839844 25.457031 26.703125 C 25.59375 26.566406 25.660156 26.402344 25.660156 26.210938 L 25.660156 22.742188 L 26.492188 23.851562 C 26.558594 23.941406 26.640625 24.007812 26.738281 24.058594 C 26.835938 24.105469 26.941406 24.128906 27.050781 24.128906 C 27.15625 24.128906 27.261719 24.105469 27.359375 24.058594 C 27.457031 24.007812 27.539062 23.941406 27.605469 23.851562 L 28.4375 22.742188 L 28.4375 26.210938 C 28.4375 26.402344 28.503906 26.566406 28.640625 26.703125 C 28.777344 26.839844 28.9375 26.90625 29.128906 26.90625 C 29.320312 26.90625 29.484375 26.839844 29.621094 26.703125 C 29.757812 26.566406 29.824219 26.402344 29.824219 26.210938 L 29.824219 20.660156 C 29.824219 20.511719 29.78125 20.375 29.695312 20.253906 C 29.605469 20.132812 29.492188 20.050781 29.351562 20.003906 C 29.207031 19.957031 29.066406 19.953125 28.921875 20 C 28.78125 20.042969 28.664062 20.125 28.574219 20.246094 Z M 28.574219 20.246094 " fill-opacity="1" fill-rule="nonzero"/><path fill="#ff4d69" d="M 40.925781 16.152344 C 40.925781 16.609375 40.839844 17.054688 40.664062 17.480469 C 40.488281 17.902344 40.234375 18.277344 39.910156 18.605469 C 39.585938 18.929688 39.210938 19.179688 38.785156 19.355469 C 38.359375 19.53125 37.917969 19.621094 37.457031 19.621094 C 36.996094 19.621094 36.554688 19.53125 36.128906 19.355469 C 35.703125 19.179688 35.328125 18.929688 35.003906 18.605469 C 34.679688 18.277344 34.429688 17.902344 34.25 17.480469 C 34.074219 17.054688 33.988281 16.609375 33.988281 16.152344 C 33.988281 15.691406 34.074219 15.25 34.25 14.824219 C 34.429688 14.398438 34.679688 14.023438 35.003906 13.699219 C 35.328125 13.371094 35.703125 13.121094 36.128906 12.945312 C 36.554688 12.769531 36.996094 12.679688 37.457031 12.679688 C 37.917969 12.679688 38.359375 12.769531 38.785156 12.945312 C 39.210938 13.121094 39.585938 13.371094 39.910156 13.699219 C 40.234375 14.023438 40.488281 14.398438 40.664062 14.824219 C 40.839844 15.25 40.925781 15.691406 40.925781 16.152344 Z M 40.925781 16.152344 " fill-opacity="1" fill-rule="nonzero"/><path fill="#ffffff" d="M 37.457031 17.886719 C 37.363281 17.886719 37.28125 17.851562 37.210938 17.785156 C 37.144531 17.714844 37.109375 17.632812 37.109375 17.539062 L 37.109375 15.324219 L 36.917969 15.417969 C 36.832031 15.472656 36.742188 15.484375 36.644531 15.457031 C 36.546875 15.425781 36.476562 15.367188 36.429688 15.277344 C 36.386719 15.1875 36.378906 15.097656 36.414062 15 C 36.449219 14.90625 36.515625 14.839844 36.605469 14.800781 L 37.300781 14.453125 C 37.355469 14.425781 37.410156 14.414062 37.472656 14.417969 C 37.53125 14.421875 37.585938 14.4375 37.636719 14.46875 C 37.691406 14.5 37.730469 14.542969 37.757812 14.59375 C 37.789062 14.648438 37.804688 14.703125 37.804688 14.761719 L 37.804688 17.539062 C 37.804688 17.632812 37.769531 17.714844 37.703125 17.785156 C 37.632812 17.851562 37.554688 17.886719 37.457031 17.886719 Z M 37.457031 17.886719 " fill-opacity="1" fill-rule="nonzero"/><path fill="#7f96d1" d="M 9.355469 13.027344 L 10.050781 13.027344 L 10.050781 15.457031 L 9.355469 15.457031 C 9.257812 15.457031 9.175781 15.421875 9.109375 15.355469 C 9.042969 15.289062 9.007812 15.207031 9.007812 15.109375 L 9.007812 13.375 C 9.007812 13.28125 9.042969 13.199219 9.109375 13.128906 C 9.175781 13.0625 9.257812 13.027344 9.355469 13.027344 Z M 9.355469 13.027344 " fill-opacity="1" fill-rule="nonzero"/><path fill="#7f96d1" d="M 9.355469 16.84375 L 10.050781 16.84375 L 10.050781 19.273438 L 9.355469 19.273438 C 9.257812 19.273438 9.175781 19.238281 9.109375 19.171875 C 9.042969 19.105469 9.007812 19.023438 9.007812 18.925781 L 9.007812 17.191406 C 9.007812 17.097656 9.042969 17.015625 9.109375 16.945312 C 9.175781 16.878906 9.257812 16.84375 9.355469 16.84375 Z M 9.355469 16.84375 " fill-opacity="1" fill-rule="nonzero"/><path fill="#7f96d1" d="M 23.925781 35.578125 L 15.601562 35.578125 C 15.410156 35.578125 15.246094 35.511719 15.109375 35.375 C 14.972656 35.242188 14.90625 35.078125 14.90625 34.886719 C 14.90625 34.695312 14.972656 34.53125 15.109375 34.394531 C 15.246094 34.257812 15.410156 34.191406 15.601562 34.191406 L 23.925781 34.191406 C 24.117188 34.191406 24.28125 34.257812 24.417969 34.394531 C 24.550781 34.53125 24.621094 34.695312 24.621094 34.886719 C 24.621094 35.078125 24.550781 35.242188 24.417969 35.375 C 24.28125 35.511719 24.117188 35.578125 23.925781 35.578125 Z M 23.925781 35.578125 " fill-opacity="1" fill-rule="nonzero"/><path fill="#8fa2ff" d="M 32.601562 14.761719 L 31.210938 14.761719 C 31.117188 14.761719 31.035156 14.730469 30.96875 14.660156 C 30.898438 14.59375 30.867188 14.511719 30.867188 14.417969 C 30.867188 14.320312 30.898438 14.238281 30.96875 14.171875 C 31.035156 14.101562 31.117188 14.070312 31.210938 14.070312 L 32.601562 14.070312 C 32.695312 14.070312 32.777344 14.101562 32.84375 14.171875 C 32.914062 14.238281 32.945312 14.320312 32.945312 14.417969 C 32.945312 14.511719 32.914062 14.59375 32.84375 14.660156 C 32.777344 14.730469 32.695312 14.761719 32.601562 14.761719 Z M 32.601562 14.761719 " fill-opacity="1" fill-rule="nonzero"/><path fill="#8fa2ff" d="M 33.292969 13.027344 L 31.210938 13.027344 C 31.117188 13.027344 31.035156 12.996094 30.96875 12.925781 C 30.898438 12.859375 30.867188 12.777344 30.867188 12.679688 C 30.867188 12.585938 30.898438 12.503906 30.96875 12.4375 C 31.035156 12.367188 31.117188 12.335938 31.210938 12.335938 L 33.292969 12.335938 C 33.390625 12.335938 33.472656 12.367188 33.539062 12.4375 C 33.605469 12.503906 33.640625 12.585938 33.640625 12.679688 C 33.640625 12.777344 33.605469 12.859375 33.539062 12.925781 C 33.472656 12.996094 33.390625 13.027344 33.292969 13.027344 Z M 33.292969 13.027344 " fill-opacity="1" fill-rule="nonzero"/></svg>